<svg width="51" height="51" viewBox="0 0 536 532" fill="none" xmlns="http://www.w3.org/2000/svg">
<g filter="url(#filter0_d_303_944)">
<path d="M280 532C421.385 532 536 417.385 536 276C536 134.615 421.385 20 280 20C138.615 20 24 134.615 24 276C24 417.385 138.615 532 280 532Z" fill="#F0F0F0"/>
<path d="M268.87 276H536C536 252.894 532.92 230.51 527.181 209.217H268.87V276Z" fill="#D80027"/>
<path d="M268.87 142.435H498.426C482.755 116.863 462.718 94.2599 439.356 75.6519H268.87V142.435Z" fill="#D80027"/>
<path d="M280.001 532C340.25 532 395.626 511.176 439.357 476.348H120.645C164.375 511.176 219.752 532 280.001 532Z" fill="#D80027"/>
<path d="M61.5743 409.565H498.426C511.007 389.036 520.764 366.596 527.181 342.782H32.8193C39.2363 366.596 48.9933 389.036 61.5743 409.565Z" fill="#D80027"/>
<path d="M142.584 59.978H165.913L144.213 75.743L152.502 101.252L130.803 85.487L109.104 101.252L116.264 79.215C97.158 95.13 80.412 113.776 66.612 134.552H74.087L60.274 144.587C58.122 148.177 56.058 151.824 54.08 155.525L60.676 175.826L48.37 166.885C45.311 173.366 42.513 179.993 39.998 186.758L47.265 209.126H74.087L52.387 224.891L60.676 250.4L38.977 234.635L25.979 244.079C24.678 254.537 24 265.189 24 276H280C280 134.616 280 117.948 280 20C229.428 20 182.285 34.67 142.584 59.978ZM152.502 250.4L130.803 234.635L109.104 250.4L117.393 224.891L95.693 209.126H122.515L130.803 183.617L139.091 209.126H165.913L144.213 224.891L152.502 250.4ZM144.213 150.317L152.502 175.826L130.803 160.061L109.104 175.826L117.393 150.317L95.693 134.552H122.515L130.803 109.043L139.091 134.552H165.913L144.213 150.317ZM244.328 250.4L222.629 234.635L200.93 250.4L209.219 224.891L187.519 209.126H214.341L222.629 183.617L230.917 209.126H257.739L236.039 224.891L244.328 250.4ZM236.039 150.317L244.328 175.826L222.629 160.061L200.93 175.826L209.219 150.317L187.519 134.552H214.341L222.629 109.043L230.917 134.552H257.739L236.039 150.317ZM236.039 75.743L244.328 101.252L222.629 85.487L200.93 101.252L209.219 75.743L187.519 59.978H214.341L222.629 34.469L230.917 59.978H257.739L236.039 75.743Z" fill="#0052B4"/>
<rect x="4.5" y="0.5" width="551" height="551" rx="4.5" stroke="#9747FF" stroke-dasharray="10 5" shape-rendering="crispEdges"/>
</g>
<defs>
<filter id="filter0_d_303_944" x="0" y="0" width="560" height="560" filterUnits="userSpaceOnUse" color-interpolation-filters="sRGB">
<feFlood flood-opacity="0" result="BackgroundImageFix"/>
<feColorMatrix in="SourceAlpha" type="matrix" values="0 0 0 0 0 0 0 0 0 0 0 0 0 0 0 0 0 0 127 0" result="hardAlpha"/>
<feOffset dy="4"/>
<feGaussianBlur stdDeviation="2"/>
<feComposite in2="hardAlpha" operator="out"/>
<feColorMatrix type="matrix" values="0 0 0 0 0 0 0 0 0 0 0 0 0 0 0 0 0 0 0.25 0"/>
<feBlend mode="normal" in2="BackgroundImageFix" result="effect1_dropShadow_303_944"/>
<feBlend mode="normal" in="SourceGraphic" in2="effect1_dropShadow_303_944" result="shape"/>
</filter>
</defs>
</svg>





